<?xml version="1.0" encoding="iso-8859-1"?>
<!-- Generator: Adobe Illustrator 19.0.0, SVG Export Plug-In . SVG Version: 6.00 Build 0)  -->
<svg version="1.1" id="Layer_1" xmlns="http://www.w3.org/2000/svg" xmlns:xlink="http://www.w3.org/1999/xlink" x="0px" y="0px"
	 viewBox="0 0 463.1 463.1" style="enable-background:new 0 0 463.1 463.1;" xml:space="preserve">
<g>
	<g>
		<path d="M460.7,27.044L460.7,27.044l-26.1-24.9c-3-2.8-7.6-2.8-10.5,0.1l-133,133.4c-4.8,4.9-11.7,7.8-18.3,7.8h-36
			c-2,0-3.9,0.8-5.3,2.2L8,369.744c-5.1,4.4-8,10.7-8,17.4s2.9,13,8,17.4l52,52.1c4.1,4.1,9.9,6.4,16.3,6.4s12.7-2.4,16.7-6.4
			c81.1-78.9,223.6-223,225-224.5c1.4-1.4,2.2-3.3,2.2-5.3v-37.3c0-5.4,1.1-13,6.5-18.4l134.2-133.4c1.4-1.4,2.2-3.4,2.2-5.4
			C463,30.344,462.1,28.444,460.7,27.044z M75.1,447.944c-1.4-0.1-3.2-0.6-4.6-2l-52.1-52.3l0,0c-0.2-0.2-0.3-0.3-0.5-0.5
			c-1.4-1.1-2.3-2.6-2.7-4.2h59.9V447.944z M24.9,374.044l215-215.6H263l-63.1,94.9l-120.3,120.7H24.9z M305.1,223.844
			c-17.7,17.9-138.6,140-214.9,214.5v-53.8l120.3-120.6l94.6-63.3V223.844z M316,160.544c-5.6,5.6-9.1,13.1-10.4,21.7l-72.9,48.7
			l48.8-73.4c7.6-1.7,14.6-5.7,20.2-11.3l127.8-128.2l15.2,14.5L316,160.544z"/>
	</g>
</g>
<g>
</g>
<g>
</g>
<g>
</g>
<g>
</g>
<g>
</g>
<g>
</g>
<g>
</g>
<g>
</g>
<g>
</g>
<g>
</g>
<g>
</g>
<g>
</g>
<g>
</g>
<g>
</g>
<g>
</g>
</svg>
