<?xml version="1.0" encoding="UTF-8" standalone="no"?> <svg width="512" height="512" viewBox="0 0 512 512" fill="none" xmlns="http://www.w3.org/2000/svg">
<path fill-rule="evenodd" clip-rule="evenodd" d="M128 24C70.5624 24 24 70.5624 24 128V384C24 441.438 70.5624 488 128 488H384C441.438 488 488 441.438 488 384V128C488 70.5624 441.438 24 384 24H128ZM40 128C40 79.3989 79.3989 40 128 40H384C432.601 40 472 79.3989 472 128V384C472 432.601 432.601 472 384 472H128C79.3989 472 40 432.601 40 384V128ZM176 100C151.699 100 132 119.699 132 144V368C132 392.301 151.699 412 176 412H336C360.301 412 380 392.301 380 368V144C380 119.699 360.301 100 336 100H176ZM148 144C148 128.536 160.536 116 176 116H336C351.464 116 364 128.536 364 144V368C364 383.464 351.464 396 336 396H176C160.536 396 148 383.464 148 368V144ZM180 140C175.582 140 172 143.582 172 148V364C172 368.418 175.582 372 180 372H332C336.418 372 340 368.418 340 364V148C340 143.582 336.418 140 332 140H180ZM188 356V156H324V356H188Z" fill="black"/>
</svg>
